{
  "header": {
    "keySignatures": [],
    "meta": [],
    "name": "Bass321",
    "ppq": 480,
    "tempos": [],
    "timeSignatures": []
  },
  "tracks": [
    {
      "channel": 0,
      "controlChanges": {},
      "pitchBends": [],
      "instrument": {
        "family": "piano",
        "name": "acoustic grand piano",
        "number": 0
      },
      "name": "Bass321",
      "notes": [
        {
          "duration": 0.11145833333333334,
          "durationTicks": 107,
          "midi": 38,
          "name": "D2",
          "ticks": 0,
          "time": 0,
          "velocity": 0.6456692913385826
        },
        {
          "duration": 0.115625,
          "durationTicks": 111,
          "midi": 40,
          "name": "E2",
          "ticks": 120,
          "time": 0.125,
          "velocity": 0.5748031496062992
        },
        {
          "duration": 0.11145833333333333,
          "durationTicks": 107,
          "midi": 41,
          "name": "F2",
          "ticks": 240,
          "time": 0.25,
          "velocity": 0.5905511811023622
        },
        {
          "duration": 0.11354166666666665,
          "durationTicks": 109,
          "midi": 43,
          "name": "G2",
          "ticks": 360,
          "time": 0.375,
          "velocity": 0.6377952755905512
        },
        {
          "duration": 0.4822916666666667,
          "durationTicks": 463,
          "midi": 45,
          "name": "A2",
          "ticks": 480,
          "time": 0.5,
          "velocity": 0.6456692913385826
        },
        {
          "duration": 0.26249999999999996,
          "durationTicks": 252,
          "midi": 43,
          "name": "G2",
          "ticks": 960,
          "time": 1,
          "velocity": 0.5590551181102362
        },
        {
          "duration": 0.2333333333333334,
          "durationTicks": 224,
          "midi": 41,
          "name": "F2",
          "ticks": 1200,
          "time": 1.25,
          "velocity": 0.6535433070866141
        },
        {
          "duration": 0.5406249999999999,
          "durationTicks": 519,
          "midi": 43,
          "name": "G2",
          "ticks": 1440,
          "time": 1.5,
          "velocity": 0.6771653543307087
        },
        {
          "duration": 0.22395833333333348,
          "durationTicks": 215,
          "midi": 40,
          "name": "E2",
          "ticks": 1920,
          "time": 2,
          "velocity": 0.9133858267716536
        },
        {
          "duration": 0.2354166666666666,
          "durationTicks": 226,
          "midi": 41,
          "name": "F2",
          "ticks": 2160,
          "time": 2.25,
          "velocity": 0.6377952755905512
        },
        {
          "duration": 0.9947916666666665,
          "durationTicks": 955,
          "midi": 38,
          "name": "D2",
          "ticks": 2400,
          "time": 2.5,
          "velocity": 0.6614173228346457
        },
        {
          "duration": 0.125,
          "durationTicks": 120,
          "midi": 45,
          "name": "A2",
          "ticks": 3360,
          "time": 3.5,
          "velocity": 0.84251968503937
        },
        {
          "duration": 0.11458333333333348,
          "durationTicks": 110,
          "midi": 43,
          "name": "G2",
          "ticks": 3480,
          "time": 3.625,
          "velocity": 0.44881889763779526
        },
        {
          "duration": 0.11041666666666661,
          "durationTicks": 106,
          "midi": 41,
          "name": "F2",
          "ticks": 3600,
          "time": 3.75,
          "velocity": 0.6062992125984252
        },
        {
          "duration": 0.11562500000000009,
          "durationTicks": 111,
          "midi": 40,
          "name": "E2",
          "ticks": 3720,
          "time": 3.875,
          "velocity": 0.6929133858267716
        },
        {
          "duration": 0.25729166666666625,
          "durationTicks": 247,
          "midi": 38,
          "name": "D2",
          "ticks": 3840,
          "time": 4,
          "velocity": 0.6535433070866141
        },
        {
          "duration": 0.27395833333333375,
          "durationTicks": 263,
          "midi": 45,
          "name": "A2",
          "ticks": 4080,
          "time": 4.25,
          "velocity": 0.6929133858267716
        },
        {
          "duration": 0.23645833333333321,
          "durationTicks": 227,
          "midi": 43,
          "name": "G2",
          "ticks": 4320,
          "time": 4.5,
          "velocity": 0.6377952755905512
        },
        {
          "duration": 0.30416666666666625,
          "durationTicks": 292,
          "midi": 45,
          "name": "A2",
          "ticks": 4560,
          "time": 4.75,
          "velocity": 0.5748031496062992
        },
        {
          "duration": 0.25,
          "durationTicks": 240,
          "midi": 48,
          "name": "C3",
          "ticks": 4800,
          "time": 5,
          "velocity": 0.6220472440944882
        },
        {
          "duration": 0.25,
          "durationTicks": 240,
          "midi": 47,
          "name": "B2",
          "ticks": 5040,
          "time": 5.25,
          "velocity": 0.8031496062992126
        },
        {
          "duration": 0.5010416666666666,
          "durationTicks": 481,
          "midi": 45,
          "name": "A2",
          "ticks": 5280,
          "time": 5.5,
          "velocity": 0.6220472440944882
        },
        {
          "duration": 0.24479166666666696,
          "durationTicks": 235,
          "midi": 43,
          "name": "G2",
          "ticks": 5760,
          "time": 6,
          "velocity": 0.6377952755905512
        },
        {
          "duration": 0.24479166666666696,
          "durationTicks": 235,
          "midi": 45,
          "name": "A2",
          "ticks": 6000,
          "time": 6.25,
          "velocity": 0.44881889763779526
        },
        {
          "duration": 0.23229166666666679,
          "durationTicks": 223,
          "midi": 41,
          "name": "F2",
          "ticks": 6240,
          "time": 6.5,
          "velocity": 0.6062992125984252
        },
        {
          "duration": 0.25520833333333304,
          "durationTicks": 245,
          "midi": 43,
          "name": "G2",
          "ticks": 6480,
          "time": 6.75,
          "velocity": 0.6377952755905512
        },
        {
          "duration": 0.23645833333333321,
          "durationTicks": 227,
          "midi": 40,
          "name": "E2",
          "ticks": 6720,
          "time": 7,
          "velocity": 0.5826771653543307
        },
        {
          "duration": 0.25937500000000036,
          "durationTicks": 249,
          "midi": 41,
          "name": "F2",
          "ticks": 6960,
          "time": 7.25,
          "velocity": 0.5905511811023622
        },
        {
          "duration": 0.24583333333333357,
          "durationTicks": 236,
          "midi": 43,
          "name": "G2",
          "ticks": 7200,
          "time": 7.5,
          "velocity": 0.5826771653543307
        },
        {
          "duration": 0.2687500000000007,
          "durationTicks": 258,
          "midi": 41,
          "name": "F2",
          "ticks": 7440,
          "time": 7.75,
          "velocity": 0.5511811023622047
        },
        {
          "duration": 0.46041666666666714,
          "durationTicks": 442,
          "midi": 38,
          "name": "D2",
          "ticks": 7680,
          "time": 8,
          "velocity": 0.6377952755905512
        },
        {
          "duration": 0.13437500000000036,
          "durationTicks": 129,
          "midi": 45,
          "name": "A2",
          "ticks": 8160,
          "time": 8.5,
          "velocity": 0.5905511811023622
        },
        {
          "duration": 0.1239583333333325,
          "durationTicks": 119,
          "midi": 43,
          "name": "G2",
          "ticks": 8280,
          "time": 8.625,
          "velocity": 0.5748031496062992
        },
        {
          "duration": 0.11770833333333286,
          "durationTicks": 113,
          "midi": 41,
          "name": "F2",
          "ticks": 8400,
          "time": 8.75,
          "velocity": 0.5275590551181102
        },
        {
          "duration": 0.10520833333333357,
          "durationTicks": 101,
          "midi": 40,
          "name": "E2",
          "ticks": 8520,
          "time": 8.875,
          "velocity": 0.5511811023622047
        },
        {
          "duration": 0.5489583333333332,
          "durationTicks": 527,
          "midi": 38,
          "name": "D2",
          "ticks": 8640,
          "time": 9,
          "velocity": 0.6377952755905512
        },
        {
          "duration": 0.11145833333333321,
          "durationTicks": 107,
          "midi": 45,
          "name": "A2",
          "ticks": 9120,
          "time": 9.5,
          "velocity": 0.7637795275590551
        },
        {
          "duration": 0.125,
          "durationTicks": 120,
          "midi": 43,
          "name": "G2",
          "ticks": 9240,
          "time": 9.625,
          "velocity": 0.5669291338582677
        },
        {
          "duration": 0.10416666666666607,
          "durationTicks": 100,
          "midi": 41,
          "name": "F2",
          "ticks": 9360,
          "time": 9.75,
          "velocity": 0.49606299212598426
        },
        {
          "duration": 0.11458333333333393,
          "durationTicks": 110,
          "midi": 40,
          "name": "E2",
          "ticks": 9480,
          "time": 9.875,
          "velocity": 0.5905511811023622
        },
        {
          "duration": 0.5218749999999996,
          "durationTicks": 501,
          "midi": 38,
          "name": "D2",
          "ticks": 9600,
          "time": 10,
          "velocity": 0.6377952755905512
        },
        {
          "duration": 0.09375,
          "durationTicks": 90,
          "midi": 45,
          "name": "A2",
          "ticks": 10080,
          "time": 10.5,
          "velocity": 0.6614173228346457
        },
        {
          "duration": 0.1281250000000007,
          "durationTicks": 123,
          "midi": 43,
          "name": "G2",
          "ticks": 10200,
          "time": 10.625,
          "velocity": 0.3464566929133858
        },
        {
          "duration": 0.109375,
          "durationTicks": 105,
          "midi": 41,
          "name": "F2",
          "ticks": 10320,
          "time": 10.75,
          "velocity": 0.5039370078740157
        },
        {
          "duration": 0.1374999999999993,
          "durationTicks": 132,
          "midi": 40,
          "name": "E2",
          "ticks": 10440,
          "time": 10.875,
          "velocity": 0.5826771653543307
        },
        {
          "duration": 0.4708333333333332,
          "durationTicks": 452,
          "midi": 38,
          "name": "D2",
          "ticks": 10560,
          "time": 11,
          "velocity": 0.6062992125984252
        },
        {
          "duration": 0.10416666666666607,
          "durationTicks": 100,
          "midi": 52,
          "name": "E3",
          "ticks": 10920,
          "time": 11.375,
          "velocity": 0.7401574803149606
        },
        {
          "duration": 0.27500000000000036,
          "durationTicks": 264,
          "midi": 50,
          "name": "D3",
          "ticks": 11040,
          "time": 11.5,
          "velocity": 0.6771653543307087
        },
        {
          "duration": 0.26145833333333357,
          "durationTicks": 251,
          "midi": 48,
          "name": "C3",
          "ticks": 11280,
          "time": 11.75,
          "velocity": 0.6771653543307087
        },
        {
          "duration": 0.24166666666666714,
          "durationTicks": 232,
          "midi": 47,
          "name": "B2",
          "ticks": 11520,
          "time": 12,
          "velocity": 0.6141732283464567
        },
        {
          "duration": 0.265625,
          "durationTicks": 255,
          "midi": 45,
          "name": "A2",
          "ticks": 11760,
          "time": 12.25,
          "velocity": 0.5826771653543307
        },
        {
          "duration": 0.24791666666666679,
          "durationTicks": 238,
          "midi": 43,
          "name": "G2",
          "ticks": 12000,
          "time": 12.5,
          "velocity": 0.6141732283464567
        },
        {
          "duration": 0.24062499999999964,
          "durationTicks": 231,
          "midi": 41,
          "name": "F2",
          "ticks": 12240,
          "time": 12.75,
          "velocity": 0.5590551181102362
        },
        {
          "duration": 0.28125,
          "durationTicks": 270,
          "midi": 43,
          "name": "G2",
          "ticks": 12480,
          "time": 13,
          "velocity": 0.6062992125984252
        },
        {
          "duration": 0.2520833333333332,
          "durationTicks": 242,
          "midi": 40,
          "name": "E2",
          "ticks": 12720,
          "time": 13.25,
          "velocity": 0.5905511811023622
        },
        {
          "duration": 0.49583333333333357,
          "durationTicks": 476,
          "midi": 41,
          "name": "F2",
          "ticks": 12960,
          "time": 13.5,
          "velocity": 0.5984251968503937
        },
        {
          "duration": 0.2645833333333325,
          "durationTicks": 254,
          "midi": 40,
          "name": "E2",
          "ticks": 13440,
          "time": 14,
          "velocity": 0.4566929133858268
        },
        {
          "duration": 0.25,
          "durationTicks": 240,
          "midi": 41,
          "name": "F2",
          "ticks": 13680,
          "time": 14.25,
          "velocity": 0.5905511811023622
        },
        {
          "duration": 1,
          "durationTicks": 960,
          "midi": 40,
          "name": "E2",
          "ticks": 13920,
          "time": 14.5,
          "velocity": 0.5669291338582677
        },
        {
          "duration": 0.44479166666666714,
          "durationTicks": 427,
          "midi": 45,
          "name": "A2",
          "ticks": 14880,
          "time": 15.5,
          "velocity": 0.6062992125984252
        }
      ]
    }
  ]
}